<svg width="20" height="20" viewBox="0 0 20 20" fill="none" xmlns="http://www.w3.org/2000/svg">
  <path fill-rule="evenodd" clip-rule="evenodd" d="M17.6278 10C19.7206 13.4223 20.2462 16.7245 18.4853 18.4853C16.7245 20.2462 13.4223 19.7206 10 17.6278C6.57778 19.7206 3.2756 20.2462 1.51477 18.4853C-0.246068 16.7245 0.279525 13.4223 2.37225 10C0.279525 6.57779 -0.246068 3.2756 1.51477 1.51477C3.2756 -0.246068 6.57779 0.279525 10 2.37225C13.4223 0.279525 16.7245 -0.246068 18.4853 1.51477C20.2462 3.2756 19.7206 6.57778 17.6278 10ZM7.17162 7.17162C8.098 6.24524 9.0568 5.44249 10 4.77451C10.9433 5.44249 11.9021 6.24524 12.8285 7.17162C13.7549 8.098 14.5576 9.0568 15.2256 10C14.5576 10.9433 13.7549 11.9021 12.8285 12.8285C11.9021 13.7549 10.9433 14.5576 10 15.2256C9.0568 14.5576 8.098 13.7549 7.17162 12.8285C6.24524 11.9021 5.44249 10.9433 4.77451 10C5.44249 9.0568 6.24524 8.098 7.17162 7.17162ZM2.92898 2.92898C3.79046 2.0675 5.82056 2.36807 8.1707 3.63348C7.35217 4.26231 6.54125 4.97357 5.75741 5.75741C4.97357 6.54125 4.26231 7.35217 3.63348 8.1707C2.36807 5.82056 2.0675 3.79046 2.92898 2.92898ZM14.2427 5.75741C15.0265 6.54125 15.7378 7.35217 16.3666 8.1707C17.632 5.82056 17.9326 3.79046 17.0711 2.92898C16.2096 2.0675 14.1795 2.36807 11.8294 3.63348C12.6479 4.26231 13.4588 4.97357 14.2427 5.75741ZM14.2427 14.2427C15.0265 13.4588 15.7378 12.6479 16.3666 11.8294C17.632 14.1795 17.9326 16.2096 17.0711 17.0711C16.2096 17.9326 14.1795 17.632 11.8294 16.3666C12.6479 15.7378 13.4588 15.0265 14.2427 14.2427ZM3.63348 11.8294C4.26231 12.6479 4.97357 13.4588 5.75741 14.2427C6.54125 15.0265 7.35217 15.7378 8.1707 16.3666C5.82056 17.632 3.79046 17.9326 2.92898 17.0711C2.0675 16.2096 2.36807 14.1795 3.63348 11.8294ZM11 10C11 9.44776 10.5523 9.00005 10 9.00005C9.44776 9.00005 9.00005 9.44776 9.00005 10C9.00005 10.5523 9.44776 11 10 11C10.5523 11 11 10.5523 11 10Z" fill="black"/>
</svg>
