<svg width="17" height="21" viewBox="0 0 17 21" fill="none" xmlns="http://www.w3.org/2000/svg">
  <path fill-rule="evenodd" clip-rule="evenodd" d="M8.17576 10.53C8.72221 9.76303 8.66123 8.9553 8.28232 7.50235C7.53295 4.62882 7.83135 3.05383 10.4147 1.18916L11.6756 0.279053L11.9805 1.80389C12.3046 3.42441 12.8369 4.42671 14.2035 6.35464C14.2578 6.43122 14.2578 6.43122 14.3124 6.50815C16.2809 9.28542 17 10.9596 17 14C17 17.6884 13.2713 21 8.99996 21C4.72837 21 0.999959 17.6888 0.999959 14C0.999959 13.9311 1.00003 13.9331 0.988348 13.6285C0.897992 11.2718 1.33377 9.42737 3.09703 7.43586C3.46957 7.01509 3.89304 6.61068 4.36959 6.22371L5.42158 5.36946L5.92762 6.62658C6.30154 7.55547 6.73966 8.28567 7.23457 8.82151C7.65374 9.27536 7.9647 9.84607 8.17576 10.53ZM4.59444 8.76166C3.23708 10.2947 2.91437 11.6606 2.98688 13.5518C3.00038 13.9039 2.99996 13.8915 2.99996 14C2.99996 16.5279 5.78356 19 8.99996 19C12.2161 19 15 16.5275 15 14C15 11.4582 14.4317 10.135 12.6807 7.6647C12.6264 7.58818 12.6264 7.58818 12.5719 7.51125C11.5085 6.01111 10.8746 4.96759 10.4553 3.80052C9.77044 4.62118 9.8107 5.43739 10.2176 6.99766C10.967 9.87118 10.6686 11.4462 8.08523 13.3108L6.61223 14.3741L6.50181 12.5608C6.43126 11.4023 6.16902 10.6156 5.76535 10.1785C5.36652 9.74668 5.00643 9.24115 4.68351 8.66279C4.65339 8.69566 4.6237 8.72862 4.59444 8.76166Z" fill="black"/>
</svg>
