<svg width="16" height="16" viewBox="0 0 16 16" fill="none" xmlns="http://www.w3.org/2000/svg">
  <path fill-rule="evenodd" clip-rule="evenodd" d="M11.0355 1.33335C10.0704 1.33334 9.44827 1.44831 8.73511 1.79738C8.47107 1.92662 8.22336 2.08226 7.99332 2.26384C7.77213 2.09244 7.53432 1.94395 7.28121 1.81876C6.55422 1.45919 5.90019 1.33334 4.9697 1.33334C2.47763 1.33334 0.666672 3.39818 0.666672 6.07992C0.666672 8.10517 1.79589 10.0615 3.89923 11.9533C5.00327 12.9462 6.41289 13.9289 7.42241 14.4517L8 14.7508L8.5776 14.4517C9.58712 13.9289 10.9967 12.9462 12.1008 11.9533C14.2041 10.0615 15.3333 8.10517 15.3333 6.07992C15.3333 3.42657 13.5053 1.34357 11.0355 1.33335ZM14 6.07992C14 7.6666 13.0575 9.29955 11.2092 10.9619C10.2015 11.8682 8.90598 12.774 8.00001 13.2491C7.09403 12.774 5.79855 11.8682 4.79086 10.9619C2.94255 9.29955 2.00001 7.6666 2.00001 6.07992C2.00001 4.09848 3.25577 2.66667 4.9697 2.66667C5.70953 2.66667 6.16542 2.75439 6.69009 3.0139C7.00001 3.16718 7.27392 3.36958 7.51103 3.62252L8.00156 4.1458L8.48764 3.61837C8.73007 3.3553 9.00801 3.14829 9.32129 2.99495C9.83059 2.74566 10.258 2.66667 11.0327 2.66667C12.7255 2.67369 14 4.12598 14 6.07992Z" fill="black"/>
</svg>
